<svg xmlns="http://www.w3.org/2000/svg" width="2100" height="1500" viewBox="0 0 2100 1500">
  <metadata><?xpacket begin="﻿" id="W5M0MpCehiHzreSzNTczkc9d"?>
<x:xmpmeta xmlns:x="adobe:ns:meta/" x:xmptk="Adobe XMP Core 5.6-c142 79.160924, 2017/07/13-01:06:39        ">
   <rdf:RDF xmlns:rdf="http://www.w3.org/1999/02/22-rdf-syntax-ns#">
      <rdf:Description rdf:about=""/>
   </rdf:RDF>
</x:xmpmeta>
                                                                                                    
                                                                                                    
                                                                                                    
                                                                                                    
                                                                                                    
                                                                                                    
                                                                                                    
                                                                                                    
                                                                                                    
                                                                                                    
                                                                                                    
                                                                                                    
                                                                                                    
                                                                                                    
                                                                                                    
                                                                                                    
                                                                                                    
                                                                                                    
                                                                                                    
                                                                                                    
                           
<?xpacket end="w"?></metadata>
<defs>
    <style>
      .cls-1 {
        fill-rule: evenodd;
      }
    </style>
  </defs>
  <path class="cls-1" d="M723.442,415S1321.67,652.292,1398.51,775.125,723.442,1085,723.442,1085s-1.575-19.06-3.97-48.06C711.869,944.9,696,752.792,696,752.792l5.488-293.125L781.07,1012.42"/>
  <path class="cls-1" d="M66,2H2034s64-18,64,52,2,1390,2,1390,6,54-48,54-1984,2-1984,2-66,18-66-68V64S2-2,66,2ZM83.713,18.052H2012.14s62.72-17.645,62.72,50.973,1.96,1362.545,1.96,1362.545,5.88,52.94-47.04,52.94-1944.107,1.96-1944.107,1.96S21,1504.11,21,1419.81V78.828S21,14.131,83.713,18.052ZM74,22"/>
</svg>
